<svg width="513" height="513" viewBox="0 0 513 513" fill="none" xmlns="http://www.w3.org/2000/svg">
<path d="M355.662 428.646C353.2 446.929 335.311 461.212 317.533 456.281C292.203 449.301 262.874 438.415 236.484 436.387C233.004 436.119 196.037 433.316 196.037 433.316C189.498 432.85 183.36 429.993 178.793 425.29L109.1 353.516C101.484 345.673 99.4221 333.977 103.898 324.002C103.898 324.002 146.992 229.286 148.593 224.361C150.193 219.435 156.067 176.476 159.548 153.397C160.47 147.281 163.49 141.675 168.088 137.538L250.533 63.3697C262.003 53.0514 279.807 54.5804 289.349 66.7034L358.607 154.688C362.526 159.668 364.534 165.856 364.563 172.192C364.642 188.861 366.018 223.085 375.233 245.128C384.199 266.569 400.652 289.725 409.251 301.119C412.551 305.492 413.056 311.406 410.269 316.122C404.2 326.398 392.209 346.128 375.233 371.443C363.53 388.897 358.107 410.473 355.662 428.646Z" fill="#8758FF"/>
<path d="M186.206 430.921C251.142 299.269 182.648 242.339 144.398 218.766" stroke="#0C0C0C" stroke-width="12"/>
<path d="M374.343 386.444C332.98 289.929 272.491 288.595 210.224 303.717" stroke="#0C0C0C" stroke-width="12"/>
<path d="M274.27 297.045C212.447 142.266 322.305 143.6 283.61 52.8673" stroke="#0C0C0C" stroke-width="12"/>
</svg>
