<svg width="513" height="513" viewBox="0 0 513 513" fill="none" xmlns="http://www.w3.org/2000/svg">
<path d="M176.394 430.92C238.695 304.612 178.176 247.083 139.382 221.803M200.412 303.716C260.957 289.013 319.82 289.867 361.055 378.65M264.458 297.045C205.605 149.699 302.337 143.831 278.381 65.3299M361.055 378.65C362.403 376.186 363.856 373.777 365.422 371.443C382.397 346.128 394.388 326.398 400.457 316.122C403.245 311.406 402.739 305.492 399.439 301.119C390.84 289.725 374.387 266.569 365.422 245.128C356.206 223.085 354.831 188.861 354.751 172.192C354.722 165.856 352.714 159.668 348.795 154.688L279.538 66.7034C279.165 66.2293 278.779 65.7715 278.381 65.3299M361.055 378.65C352.321 394.608 347.968 412.904 345.85 428.646C343.389 446.929 325.499 461.212 307.722 456.281C282.391 449.301 253.062 438.415 226.672 436.387C223.192 436.119 186.225 433.316 186.225 433.316C179.686 432.85 173.549 429.993 168.982 425.29L99.2884 353.516C91.672 345.673 89.6104 333.977 94.0858 324.002C94.0858 324.002 137.18 229.286 138.781 224.361C138.941 223.869 139.143 222.997 139.382 221.803M278.381 65.3299C268.613 54.479 251.743 53.4548 240.721 63.3697L158.276 137.538C153.678 141.675 150.659 147.281 149.736 153.397C146.603 174.17 141.531 211.05 139.382 221.803" stroke="#8758FF" stroke-width="12"/>
</svg>
